<?xml version="1.0" encoding="UTF-8" standalone="no"?>
<svg
   width="149.073"
   height="50"
   viewBox="0 0 149.073 50"
   fill="none"
   version="1.1"
   id="svg10"
   sodipodi:docname="Gurgl logo.svg"
   inkscape:version="1.1.2 (b8e25be833, 2022-02-05)"
   xmlns:inkscape="http://www.inkscape.org/namespaces/inkscape"
   xmlns:sodipodi="http://sodipodi.sourceforge.net/DTD/sodipodi-0.dtd"
   xmlns="http://www.w3.org/2000/svg"
   xmlns:svg="http://www.w3.org/2000/svg">
  <defs
     id="defs14" />
  <sodipodi:namedview
     id="namedview12"
     pagecolor="#ffffff"
     bordercolor="#111111"
     borderopacity="1"
     inkscape:pageshadow="0"
     inkscape:pageopacity="0"
     inkscape:pagecheckerboard="1"
     showgrid="false"
     inkscape:zoom="7.0533333"
     inkscape:cx="74.07845"
     inkscape:cy="25.094518"
     inkscape:window-width="1920"
     inkscape:window-height="1017"
     inkscape:window-x="-8"
     inkscape:window-y="-8"
     inkscape:window-maximized="1"
     inkscape:current-layer="svg10" />
  <path
     d="m 6.95,38.550001 c -1.26667,0 -2.43333,-0.3167 -3.5,-0.95 -1.03333,-0.6333 -1.86667,-1.4667 -2.5,-2.5 -0.63333,-1.0667 -0.95,-2.2333 -0.95,-3.5 v -22.1 c 0,-1.26667 0.31667,-2.41667 0.95,-3.45 0.63333,-1.06667 1.46667,-1.91667 2.5,-2.55 1.06667,-0.63333 2.23333,-0.95 3.5,-0.95 H 29 c 1.2667,0 2.4333,0.31667 3.5,0.95 1.0667,0.63333 1.9167,1.48333 2.55,2.55 0.6333,1.03333 0.95,2.18333 0.95,3.45 v 2.8 h -6.65 v -2.5 c 0,-0.1667 -0.0667,-0.3 -0.2,-0.4 -0.1333,-0.13333 -0.2833,-0.2 -0.45,-0.2 H 7.2 c -0.16667,0 -0.31667,0.06667 -0.45,0.2 -0.1,0.1 -0.15,0.2333 -0.15,0.4 v 21.5 c 0,0.1667 0.05,0.3167 0.15,0.45 0.13333,0.1 0.28333,0.15 0.45,0.15 h 21.5 c 0.1667,0 0.3167,-0.05 0.45,-0.15 0.1333,-0.1333 0.2,-0.2833 0.2,-0.45 v -6.5 H 21.2 v -6.65 H 36 v 13.45 c 0,1.2667 -0.3167,2.4333 -0.95,3.5 -0.6333,1.0333 -1.4833,1.8667 -2.55,2.5 -1.0667,0.6333 -2.2333,0.95 -3.5,0.95 z m 99.543,11.45 v -6.6 h 17.45 c 0.166,0 0.3,-0.0667 0.4,-0.2 0.133,-0.1 0.2,-0.2333 0.2,-0.4 v -4.25 h -16 c -1.234,0 -2.384,-0.3167 -3.45,-0.95 -1.034,-0.6333 -1.867,-1.4667 -2.5,-2.5 -0.634,-1.0333 -0.95,-2.1833 -0.95,-3.45 v -15.2 c 0,-1.2667 0.316,-2.4167 0.95,-3.45 0.633,-1.0333 1.466,-1.8667 2.5,-2.5 1.066,-0.6333 2.216,-0.95 3.45,-0.95 h 15.7 c 1.266,0 2.416,0.3167 3.45,0.95 1.033,0.6333 1.85,1.4667 2.45,2.5 0.633,1.0333 0.95,2.1833 0.95,3.45 v 26.65 c 0,1.3 -0.3,2.4667 -0.9,3.5 -0.6,1.0333 -1.434,1.85 -2.5,2.45 -1.034,0.6333 -2.184,0.95 -3.45,0.95 z m 2.3,-18 h 15.15 c 0.166,0 0.3,-0.05 0.4,-0.15 0.133,-0.1333 0.2,-0.2833 0.2,-0.45 v -14.7 c 0,-0.1667 -0.067,-0.3 -0.2,-0.4 -0.1,-0.1333 -0.234,-0.2 -0.4,-0.2 h -15.15 c -0.167,0 -0.317,0.0667 -0.45,0.2 -0.1,0.1 -0.15,0.2333 -0.15,0.4 v 14.7 c 0,0.1667 0.05,0.3167 0.15,0.45 0.133,0.1 0.283,0.15 0.45,0.15 z"
     fill="#0085ff"
     id="path2" />
  <path
     d="m 48.2539,38.550001 c -1.2667,0 -2.4333,-0.3167 -3.5,-0.95 -1.0333,-0.6333 -1.8667,-1.4667 -2.5,-2.5 -0.6,-1.0333 -0.9,-2.1833 -0.9,-3.45 v -22.1 h 6.55 v 21.85 c 0,0.1667 0.05,0.3167 0.15,0.45 0.1333,0.1 0.2833,0.15 0.45,0.15 h 15.15 c 0.1667,0 0.3,-0.05 0.4,-0.15 0.1333,-0.1333 0.2,-0.2833 0.2,-0.45 v -21.85 h 6.55 v 22.1 c 0,1.2667 -0.3167,2.4167 -0.95,3.45 -0.6,1.0333 -1.4167,1.8667 -2.45,2.5 -1.0333,0.6333 -2.2,0.95 -3.5,0.95 z"
     fill="#ff0000"
     id="path4" />
  <path
     d="m 76.0695,38.550001 v -22.1 c 0,-1.2667 0.3167,-2.4167 0.95,-3.45 0.6334,-1.0333 1.4667,-1.8667 2.5,-2.5 1.0667,-0.6333 2.2167,-0.95 3.45,-0.95 h 16.1 v 6.55 h -15.85 c -0.1666,0 -0.3166,0.0667 -0.45,0.2 -0.1,0.1 -0.15,0.2333 -0.15,0.4 v 21.85 z"
     fill="#e7c202"
     id="path6" />
  <path
     d="m 143.223,38.550001 c -1.266,0 -2.416,-0.3167 -3.45,-0.95 -1.033,-0.6333 -1.866,-1.4667 -2.5,-2.5 -0.633,-1.0333 -0.95,-2.1833 -0.95,-3.45 V 0 h 6.6 v 31.400001 c 0,0.1667 0.05,0.3167 0.15,0.45 0.134,0.1 0.284,0.15 0.45,0.15 h 5.55 v 6.55 z"
     fill="#3fc002"
     id="path8" />
</svg>
