<?xml version="1.0" encoding="UTF-8" standalone="no"?>
<!-- Created with Inkscape (http://www.inkscape.org/) -->

<svg
   width="16.933331mm"
   height="8.4666662mm"
   viewBox="0 0 16.933331 8.4666662"
   version="1.1"
   id="svg5"
   sodipodi:docname="logo.svg"
   inkscape:version="1.1.2 (b8e25be833, 2022-02-05)"
   xmlns:inkscape="http://www.inkscape.org/namespaces/inkscape"
   xmlns:sodipodi="http://sodipodi.sourceforge.net/DTD/sodipodi-0.dtd"
   xmlns="http://www.w3.org/2000/svg"
   xmlns:svg="http://www.w3.org/2000/svg">
  <sodipodi:namedview
     id="namedview6"
     pagecolor="#ffffff"
     bordercolor="#111111"
     borderopacity="1"
     inkscape:pageshadow="0"
     inkscape:pageopacity="0"
     inkscape:pagecheckerboard="1"
     inkscape:document-units="mm"
     showgrid="false"
     inkscape:zoom="4.1877625"
     inkscape:cx="100.05535"
     inkscape:cy="55.849287"
     inkscape:window-width="1920"
     inkscape:window-height="1017"
     inkscape:window-x="-8"
     inkscape:window-y="-8"
     inkscape:window-maximized="1"
     inkscape:current-layer="svg5" />
  <defs
     id="defs2" />
  <g
     id="layer1"
     transform="translate(147.0488,18.864426)">
    <path
       style="fill:#000000;stroke-width:0.264583"
       d="m -138.58213,-10.39776 h -7.67292 v -0.396875 -0.396875 h -0.39688 -0.39687 v -3.439583 -3.439583 h 0.39687 0.39688 v -0.396875 -0.396875 h 3.70417 3.70416 v 0.79375 0.79375 h -3.30729 -3.30729 v 2.645833 2.645833 h 6.87917 6.87916 v -1.058333 -1.058333 h -3.04271 -3.0427 v -0.396875 -0.396875 h -0.39688 -0.39687 v -1.5875 -1.5875 h 0.39687 0.39688 v -0.396875 -0.396875 h 3.83645 3.83646 v 0.79375 0.79375 h -3.43958 -3.43958 v 0.79375 0.79375 h 3.0427 3.04271 v 0.396875 0.396875 h 0.39688 0.39687 v 1.852083 1.852083 h -0.39687 -0.39688 v 0.396875 0.396875 z"
       id="path220" />
  </g>
</svg>
