<?xml version="1.0" encoding="UTF-8" standalone="no"?>
<svg
   width="100"
   height="69.936859"
   viewBox="0 0 99.999999 69.936859"
   fill="none"
   version="1.1"
   id="svg6"
   sodipodi:docname="cs compact logo mono.svg"
   inkscape:version="1.1.2 (b8e25be833, 2022-02-05)"
   xmlns:inkscape="http://www.inkscape.org/namespaces/inkscape"
   xmlns:sodipodi="http://sodipodi.sourceforge.net/DTD/sodipodi-0.dtd"
   xmlns="http://www.w3.org/2000/svg"
   xmlns:svg="http://www.w3.org/2000/svg">
  <defs
     id="defs10">
    <filter
       style="color-interpolation-filters:sRGB;"
       inkscape:label="Greyscale"
       id="filter203"
       x="0"
       y="0"
       width="1"
       height="1">
      <feColorMatrix
         values="0.21 0.72 0.072 0.05 0 0.21 0.72 0.072 0.05 0 0.21 0.72 0.072 0.05 0 0 0 0 1 0 "
         id="feColorMatrix201"
         result="fbSourceGraphic" />
      <feColorMatrix
         result="fbSourceGraphicAlpha"
         in="fbSourceGraphic"
         values="0 0 0 -1 0 0 0 0 -1 0 0 0 0 -1 0 0 0 0 1 0"
         id="feColorMatrix227" />
      <feColorMatrix
         id="feColorMatrix229"
         values="0.21 0.72 0.072 0.05 0 0.21 0.72 0.072 0.05 0 0.21 0.72 0.072 0.05 0 0 0 0 1 0 "
         in="fbSourceGraphic" />
    </filter>
    <filter
       style="color-interpolation-filters:sRGB;"
       inkscape:label="Greyscale"
       id="filter207"
       x="0"
       y="0"
       width="1"
       height="1">
      <feColorMatrix
         values="0.21 0.72 0.072 0.05 0 0.21 0.72 0.072 0.05 0 0.21 0.72 0.072 0.05 0 0 0 0 1 0 "
         id="feColorMatrix205"
         result="fbSourceGraphic" />
      <feColorMatrix
         result="fbSourceGraphicAlpha"
         in="fbSourceGraphic"
         values="0 0 0 -1 0 0 0 0 -1 0 0 0 0 -1 0 0 0 0 1 0"
         id="feColorMatrix231" />
      <feColorMatrix
         id="feColorMatrix233"
         values="0.21 0.72 0.072 0.05 0 0.21 0.72 0.072 0.05 0 0.21 0.72 0.072 0.05 0 0 0 0 1 0 "
         in="fbSourceGraphic" />
    </filter>
  </defs>
  <sodipodi:namedview
     id="namedview8"
     pagecolor="#ffffff"
     bordercolor="#111111"
     borderopacity="1"
     inkscape:pageshadow="0"
     inkscape:pageopacity="0"
     inkscape:pagecheckerboard="1"
     showgrid="false"
     inkscape:zoom="2.0346154"
     inkscape:cx="256.80529"
     inkscape:cy="-20.642722"
     inkscape:window-width="1920"
     inkscape:window-height="1017"
     inkscape:window-x="-8"
     inkscape:window-y="-8"
     inkscape:window-maximized="1"
     inkscape:current-layer="svg6" />
  <path
     d="m 13.5017,69.936862 c -2.460691,0 -4.7272194,-0.614679 -6.7994174,-1.845555 C 4.6948307,66.86043 3.0759319,65.242532 1.845556,63.234579 0.61518031,61.162882 0,58.895399 0,56.435163 V 13.5017 C 0,11.041464 0.61518031,8.8073702 1.845556,6.7994171 3.0759319,4.7277198 4.6948307,3.0764328 6.7022826,1.845556 8.7744806,0.61467946 11.041009,0 13.5017,0 H 69.742593 V 12.918893 H 16.221467 c -1.036153,0 -1.877884,0.291403 -2.525498,0.87421 -0.582807,0.582808 -0.874211,1.425147 -0.874211,2.525498 v 37.299661 c 0,1.036607 0.291404,1.877427 0.874211,2.525497 0.647614,0.582807 1.489345,0.874211 2.525498,0.874211 h 53.521126 v 12.918892 z"
     fill="#0085ff"
     id="path2"
     style="stroke-width:1.51773;filter:url(#filter207)" />
  <path
     d="m 43.564837,69.936862 c -2.46069,0 -4.727265,-0.614679 -6.799416,-1.845555 -2.007499,-1.230877 -3.626306,-2.848775 -4.856728,-4.856728 -1.23042,-2.071697 -1.845555,-4.33918 -1.845555,-6.799416 v -5.3424 h 12.821757 v 4.759593 c 0,0.323275 0.09713,0.614679 0.291405,0.87421 0.259076,0.194269 0.550478,0.291404 0.874209,0.291404 h 41.864985 c 0.32373,0 0.582807,-0.09713 0.777075,-0.291404 0.259076,-0.259531 0.388538,-0.550935 0.388538,-0.87421 V 42.544925 c 0,-0.323277 -0.129461,-0.582807 -0.388538,-0.777077 -0.194268,-0.194269 -0.453345,-0.291402 -0.777075,-0.291402 H 43.564837 c -2.46069,0 -4.727265,-0.614681 -6.799416,-1.845557 -2.007499,-1.230877 -3.626306,-2.848774 -4.856728,-4.856727 -1.23042,-2.071697 -1.845555,-4.371054 -1.845555,-6.896552 V 13.5017 c 0,-2.460236 0.615135,-4.6943298 1.845555,-6.7022829 C 33.139115,4.7277198 34.757922,3.0764328 36.765421,1.845556 38.837572,0.61467946 41.104147,0 43.564837,0 h 42.933464 c 2.460688,0 4.694786,0.61467946 6.70228,1.845556 2.07215,1.2308768 3.723438,2.8821638 4.953864,4.9538611 C 99.384862,8.8073702 100,11.041464 100,13.5017 v 5.342399 H 87.081107 v -4.759592 c 0,-0.323276 -0.129461,-0.582807 -0.388538,-0.777076 -0.194268,-0.259532 -0.453345,-0.388538 -0.777075,-0.388538 H 44.050509 c -0.323731,0 -0.615133,0.129006 -0.874209,0.388538 -0.19427,0.194269 -0.291405,0.4538 -0.291405,0.777076 v 13.307431 c 0,0.323276 0.09713,0.582807 0.291405,0.777076 0.259076,0.19427 0.550478,0.291404 0.874209,0.291404 h 42.447792 c 2.460688,0 4.694786,0.614679 6.70228,1.845556 2.07215,1.230876 3.723438,2.882164 4.953864,4.953861 C 99.384862,37.267787 100,39.533754 100,42.059252 v 14.375911 c 0,2.460236 -0.615138,4.727719 -1.845555,6.799416 -1.230426,2.007953 -2.881714,3.625851 -4.953864,4.856728 -2.007494,1.230876 -4.241592,1.845555 -6.70228,1.845555 z"
     fill="#ff0000"
     id="path4"
     style="stroke-width:1.51773;filter:url(#filter203)" />
</svg>
