<?xml version="1.0" encoding="UTF-8" standalone="no"?>
<!-- Created with Inkscape (http://www.inkscape.org/) -->

<svg
   width="200mm"
   height="24.536161mm"
   viewBox="0 0 199.99999 24.536162"
   version="1.1"
   id="svg65"
   sodipodi:docname="csLogo_mono.svg"
   inkscape:version="1.1.2 (b8e25be833, 2022-02-05)"
   xmlns:inkscape="http://www.inkscape.org/namespaces/inkscape"
   xmlns:sodipodi="http://sodipodi.sourceforge.net/DTD/sodipodi-0.dtd"
   xmlns="http://www.w3.org/2000/svg"
   xmlns:svg="http://www.w3.org/2000/svg">
  <sodipodi:namedview
     id="namedview67"
     pagecolor="#ffffff"
     bordercolor="#111111"
     borderopacity="1"
     inkscape:pageshadow="0"
     inkscape:pageopacity="0"
     inkscape:pagecheckerboard="1"
     inkscape:document-units="mm"
     showgrid="false"
     inkscape:zoom="0.74029882"
     inkscape:cx="-176.28017"
     inkscape:cy="252.6007"
     inkscape:window-width="1920"
     inkscape:window-height="1017"
     inkscape:window-x="-8"
     inkscape:window-y="-8"
     inkscape:window-maximized="1"
     inkscape:current-layer="layer1" />
  <defs
     id="defs62">
    <filter
       style="color-interpolation-filters:sRGB;"
       inkscape:label="Greyscale"
       id="filter2969"
       x="0"
       y="0"
       width="1"
       height="1">
      <feColorMatrix
         values="0.21 0.72 0.072 0.02 0 0.21 0.72 0.072 0.02 0 0.21 0.72 0.072 0.02 0 0 0 0 1 0 "
         id="feColorMatrix2967" />
    </filter>
    <filter
       style="color-interpolation-filters:sRGB;"
       inkscape:label="Greyscale"
       id="filter2973"
       x="0"
       y="0"
       width="1"
       height="1">
      <feColorMatrix
         values="0.21 0.72 0.072 0.02 0 0.21 0.72 0.072 0.02 0 0.21 0.72 0.072 0.02 0 0 0 0 1 0 "
         id="feColorMatrix2971" />
    </filter>
    <filter
       style="color-interpolation-filters:sRGB;"
       inkscape:label="Greyscale"
       id="filter2977"
       x="0"
       y="0"
       width="1"
       height="1">
      <feColorMatrix
         values="0.21 0.72 0.072 0.02 0 0.21 0.72 0.072 0.02 0 0.21 0.72 0.072 0.02 0 0 0 0 1 0 "
         id="feColorMatrix2975" />
    </filter>
    <filter
       style="color-interpolation-filters:sRGB;"
       inkscape:label="Greyscale"
       id="filter2981"
       x="0"
       y="0"
       width="1"
       height="1">
      <feColorMatrix
         values="0.21 0.72 0.072 0.02 0 0.21 0.72 0.072 0.02 0 0.21 0.72 0.072 0.02 0 0 0 0 1 0 "
         id="feColorMatrix2979" />
    </filter>
    <filter
       style="color-interpolation-filters:sRGB;"
       inkscape:label="Greyscale"
       id="filter2985"
       x="0"
       y="0"
       width="1"
       height="1">
      <feColorMatrix
         values="0.21 0.72 0.072 0.02 0 0.21 0.72 0.072 0.02 0 0.21 0.72 0.072 0.02 0 0 0 0 1 0 "
         id="feColorMatrix2983" />
    </filter>
  </defs>
  <g
     inkscape:label="Layer 1"
     inkscape:groupmode="layer"
     id="layer1"
     transform="translate(-151.64998,-81.758648)">
    <path
       d="m 156.07923,106.2948 c -0.80726,0 -1.55077,-0.20179 -2.23056,-0.60543 -0.65855,-0.40365 -1.18963,-0.9347 -1.59326,-1.59326 -0.40363,-0.67978 -0.60543,-1.42333 -0.60543,-2.23056 V 87.781162 c 0,-0.807234 0.2018,-1.540146 0.60543,-2.198694 0.40363,-0.679793 0.93471,-1.221499 1.59326,-1.625122 0.67979,-0.403625 1.4233,-0.605437 2.23056,-0.605437 h 18.44991 v 4.238062 h -17.5577 c -0.3399,0 -0.61604,0.09559 -0.82848,0.286786 -0.19119,0.191191 -0.28678,0.467373 -0.28678,0.828494 v 12.236209 c 0,0.33991 0.0956,0.61604 0.28678,0.82849 0.21244,0.19119 0.48858,0.28679 0.82848,0.28679 h 17.5577 v 4.23806 z m 59.57832,0 V 87.813028 h 4.17434 V 106.2948 Z m 0,-20.329951 v -4.206201 h 4.17434 v 4.206201 z M 323.27507,106.2948 c -0.80758,0 -1.54048,-0.20179 -2.1987,-0.60543 -0.6587,-0.40365 -1.18995,-0.9347 -1.59324,-1.59326 -0.4038,-0.65856 -0.60545,-1.39146 -0.60545,-2.1987 V 82.141033 h 4.17434 v 5.671995 h 7.20151 v 4.174331 h -7.20151 v 9.750731 c 0,0.10621 0.0318,0.20179 0.0956,0.28678 0.0847,0.0637 0.18028,0.0956 0.28679,0.0956 h 6.81913 v 4.17433 z"
       fill="#0085ff"
       id="path2-1"
       style="stroke-width:0.497892;filter:url(#filter2969)" />
    <path
       d="M 177.78785,106.2948 V 81.758648 h 4.17432 v 6.05438 h 10.19685 c 0.80723,0 1.54012,0.201795 2.19869,0.605437 0.65856,0.403642 1.18962,0.934693 1.59326,1.593257 0.40363,0.658562 0.60544,1.391461 0.60544,2.198694 V 106.2948 h -4.17434 V 92.369741 c 0,-0.106209 -0.0425,-0.191191 -0.1274,-0.25492 -0.0638,-0.08498 -0.14866,-0.127454 -0.25493,-0.127454 h -9.65513 c -0.10614,0 -0.20179,0.04247 -0.28679,0.127454 -0.0638,0.06374 -0.0956,0.148718 -0.0956,0.25492 V 106.2948 Z m 80.97974,0 c -0.80757,0 -1.55094,-0.20179 -2.23055,-0.60543 -0.65872,-0.40365 -1.18997,-0.9347 -1.59326,-1.59326 -0.4038,-0.67978 -0.60543,-1.42333 -0.60543,-2.23056 v -1.75258 h 4.20619 v 1.56139 c 0,0.10621 0.0318,0.20179 0.0956,0.28678 0.0847,0.0637 0.18028,0.0956 0.28679,0.0956 h 13.73385 c 0.10614,0 0.1912,-0.0319 0.25493,-0.0956 0.0847,-0.085 0.1274,-0.18057 0.1274,-0.28678 v -4.365523 c 0,-0.106209 -0.0429,-0.191191 -0.1274,-0.254922 -0.0638,-0.06374 -0.14885,-0.0956 -0.25493,-0.0956 h -13.89319 c -0.80757,0 -1.55094,-0.201795 -2.23055,-0.605437 -0.65872,-0.403642 -1.18997,-0.934694 -1.59326,-1.593257 -0.4038,-0.679772 -0.60543,-1.433931 -0.60543,-2.262424 v -4.71604 c 0,-0.807234 0.20163,-1.540146 0.60543,-2.198694 0.40329,-0.679793 0.93454,-1.221499 1.59326,-1.625122 0.67961,-0.403625 1.42298,-0.605437 2.23055,-0.605437 h 14.08439 c 0.80708,0 1.53998,0.201812 2.19869,0.605437 0.67963,0.403623 1.22134,0.945329 1.62512,1.625122 0.40331,0.658548 0.60545,1.39146 0.60545,2.198694 v 1.752583 h -4.23807 v -1.561393 c 0,-0.106189 -0.0429,-0.19119 -0.1274,-0.254919 -0.0638,-0.08498 -0.14885,-0.127455 -0.25493,-0.127455 h -13.73386 c -0.10651,0 -0.20214,0.04247 -0.28678,0.127455 -0.0638,0.06374 -0.0956,0.148718 -0.0956,0.254919 v 4.365524 c 0,0.106209 0.0318,0.191191 0.0956,0.254922 0.0847,0.06374 0.18027,0.0956 0.28678,0.0956 h 13.92505 c 0.80709,0 1.53999,0.201795 2.1987,0.605437 0.67963,0.403642 1.22134,0.945348 1.62512,1.625122 0.4033,0.658562 0.60545,1.402066 0.60545,2.230558 v 4.71604 c 0,0.80723 -0.20215,1.55078 -0.60545,2.23056 -0.40378,0.65856 -0.94549,1.18961 -1.62512,1.59326 -0.65871,0.40364 -1.39161,0.60543 -2.1987,0.60543 z m 74.11381,0 V 81.758648 h 4.17434 v 6.05438 h 10.19685 c 0.80709,0 1.53997,0.201795 2.1987,0.605437 0.6587,0.403642 1.18946,0.934693 1.59324,1.593257 0.4038,0.658562 0.60545,1.391461 0.60545,2.198694 V 106.2948 h -4.17434 V 92.369741 c 0,-0.106209 -0.0423,-0.191191 -0.1274,-0.25492 -0.0638,-0.08498 -0.14885,-0.127454 -0.25492,-0.127454 h -9.65514 c -0.10613,0 -0.20165,0.04247 -0.28678,0.127454 -0.0638,0.06374 -0.0956,0.148718 -0.0956,0.25492 V 106.2948 Z"
       fill="#ff0000"
       id="path4-9"
       style="stroke-width:0.497892;filter:url(#filter2973)" />
    <path
       d="M 199.00903,106.2948 V 92.210416 c 0,-0.807233 0.20179,-1.540132 0.60543,-2.198694 0.40365,-0.658564 0.93469,-1.189615 1.59326,-1.593257 0.67962,-0.403642 1.41252,-0.605437 2.1987,-0.605437 h 10.26056 v 4.174331 h -10.10125 c -0.10594,0 -0.20163,0.04247 -0.28678,0.127454 -0.0638,0.06374 -0.0956,0.148719 -0.0956,0.25492 v 13.925057 z"
       fill="#e7c202"
       id="path6-4"
       style="stroke-width:0.497892;filter:url(#filter2977)" />
    <path
       d="m 226.99108,106.2948 c -0.80708,0 -1.53997,-0.20179 -2.19869,-0.60543 -0.65871,-0.40365 -1.18947,-0.9347 -1.59325,-1.59326 -0.40379,-0.65856 -0.60545,-1.39146 -0.60545,-2.1987 v -0.70103 h 4.17434 v 0.54171 c 0,0.10621 0.0318,0.20179 0.0956,0.28678 0.0851,0.0637 0.18065,0.0956 0.28678,0.0956 h 9.65514 c 0.10613,0 0.19119,-0.0319 0.25493,-0.0956 0.085,-0.085 0.12739,-0.18057 0.12739,-0.28678 v -2.198697 c 0,-0.10619 -0.0423,-0.19119 -0.12739,-0.254919 -0.0638,-0.08498 -0.14885,-0.127455 -0.25493,-0.127455 h -9.81447 c -0.80708,0 -1.53997,-0.201794 -2.19869,-0.605437 -0.65871,-0.403642 -1.18947,-0.934693 -1.59325,-1.593255 -0.40379,-0.658562 -0.60545,-1.39146 -0.60545,-2.198694 v -2.549209 c 0,-0.807234 0.20166,-1.540132 0.60545,-2.198694 0.40378,-0.658564 0.93454,-1.189615 1.59325,-1.593258 0.65872,-0.403642 1.39161,-0.605436 2.19869,-0.605436 h 9.9738 c 0.82848,0 1.57185,0.201794 2.23055,0.605436 0.65871,0.403643 1.18947,0.934694 1.59327,1.593258 0.40377,0.658562 0.60543,1.39146 0.60543,2.198694 v 0.701032 h -4.2062 v -0.541715 c 0,-0.106209 -0.0423,-0.191191 -0.1274,-0.25492 -0.0638,-0.08498 -0.14885,-0.127454 -0.25492,-0.127454 h -9.65514 c -0.10613,0 -0.20165,0.04247 -0.28679,0.127454 -0.0638,0.06374 -0.0956,0.148718 -0.0956,0.25492 v 2.198694 c 0,0.106208 0.0318,0.201796 0.0956,0.286786 0.0851,0.06374 0.18066,0.0956 0.28679,0.0956 h 9.81447 c 0.82848,0 1.57185,0.201797 2.23055,0.605439 0.65871,0.40364 1.18947,0.934693 1.59326,1.593255 0.40378,0.658562 0.60543,1.391461 0.60543,2.198693 v 2.549212 c 0,0.80724 -0.20165,1.54014 -0.60543,2.1987 -0.40379,0.65856 -0.93455,1.18961 -1.59326,1.59326 -0.6587,0.40364 -1.40207,0.60543 -2.23055,0.60543 z m 84.79063,0 V 87.813028 h 4.17434 V 106.2948 Z m 0,-20.329951 v -4.206201 h 4.17434 v 4.206201 z"
       fill="#3fc002"
       id="path8-5"
       style="stroke-width:0.497892;filter:url(#filter2981)" />
    <path
       d="M 280.69627,106.2948 V 87.813028 h 22.91104 c 0.8285,0 1.57185,0.201795 2.23055,0.605437 0.65822,0.403642 1.17903,0.934693 1.56141,1.593257 0.40329,0.658562 0.60543,1.391461 0.60543,2.198694 V 106.2948 h -4.14246 V 92.369741 c 0,-0.106209 -0.0429,-0.191191 -0.1274,-0.25492 -0.0851,-0.08498 -0.18065,-0.127454 -0.28679,-0.127454 h -6.59608 c -0.10651,0 -0.20214,0.04247 -0.28679,0.127454 -0.0638,0.06374 -0.0956,0.148718 -0.0956,0.25492 V 106.2948 h -4.2062 V 92.369741 c 0,-0.106209 -0.0429,-0.191191 -0.1274,-0.25492 -0.0638,-0.08498 -0.14885,-0.127454 -0.25492,-0.127454 h -6.62794 c -0.10651,0 -0.20215,0.04247 -0.28679,0.127454 -0.0638,0.06374 -0.0956,0.148718 -0.0956,0.25492 V 106.2948 Z"
       fill="#e7c202"
       id="path10-9"
       style="stroke-width:0.497892;filter:url(#filter2985)" />
  </g>
</svg>
